<svg width="153" height="153" viewBox="0 0 153 153" fill="none" xmlns="http://www.w3.org/2000/svg">
<g clip-path="url(#clip0_2390_1678)">
<path d="M20.6066 71.6912H0V81.3089H20.6066V71.6912Z" fill="#F8E3BC"/>
<path d="M153 71.6912H132.398V81.3089H153V71.6912Z" fill="#F8E3BC"/>
<path d="M7.84364 110.583L12.6527 118.916L30.4963 108.613L25.6876 100.282L7.84364 110.583Z" fill="#F0C87C"/>
<path d="M145.156 42.4139L140.347 34.0835L122.504 44.3868L127.312 52.7172L145.156 42.4139Z" fill="#F0C87C"/>
<path d="M34.0858 140.347L42.4166 145.156L52.7199 127.312L44.3891 122.504L34.0858 140.347Z" fill="#F8E3BC"/>
<path d="M118.919 12.6528L110.583 7.84375L100.286 25.6877L108.616 30.4964L118.919 12.6528Z" fill="#F8E3BC"/>
<path d="M81.3114 132.396H71.6936V153H81.3114V132.396Z" fill="#F0C87C"/>
<path d="M81.3114 0H71.6936V20.6039H81.3114V0Z" fill="#F0C87C"/>
<path d="M100.286 127.312L110.583 145.156L118.919 140.347L108.616 122.504L100.286 127.312Z" fill="#F8E3BC"/>
<path d="M52.7199 25.6877L42.4166 7.84375L34.0858 12.6528L44.3891 30.4964L52.7199 25.6877Z" fill="#F8E3BC"/>
<path d="M122.504 108.613L140.347 118.916L145.156 110.583L127.312 100.282L122.504 108.613Z" fill="#F0C87C"/>
<path d="M30.4963 44.3868L12.6527 34.0835L7.84364 42.4139L25.6876 52.7172L30.4963 44.3868Z" fill="#F0C87C"/>
<path d="M76.5027 29.8606C50.7416 29.8606 29.8634 50.7418 29.8634 76.4999C29.8634 102.258 50.7419 123.139 76.5027 123.139C102.258 123.139 123.142 102.258 123.142 76.4999C123.142 50.7415 102.258 29.8606 76.5027 29.8606Z" fill="#F0C87C"/>
</g>
<defs>
<clipPath id="clip0_2390_1678">
<rect width="153" height="153" fill="white"/>
</clipPath>
</defs>
</svg>
