<svg width="110" height="118" viewBox="0 0 110 118" fill="none" xmlns="http://www.w3.org/2000/svg">
<path d="M102.682 29.4849C98.0463 24.889 91.9183 22.3105 85.4117 22.2248L83.2119 22.1962L82.7226 20.0572C81.4192 14.3863 78.1765 9.25831 73.5914 5.60519C68.8742 1.86636 63.1961 -0.0728701 57.1647 0.00209388C51.0652 0.0914564 45.3944 2.2197 40.7519 6.16216C36.2381 10.0082 33.1598 15.3148 32.0813 21.0999L31.5812 23.7746L28.8814 23.3424C27.3316 23.0994 25.928 22.9888 24.5817 23.0067C17.9394 23.0994 11.7187 25.7741 7.06205 30.5451C2.4232 35.3197 -0.0800942 41.6082 0.00195474 48.2576C0.0947455 54.9034 2.76945 61.1242 7.5404 65.7845C12.3184 70.4197 18.6072 72.9303 25.2529 72.841L85.4183 72.034C92.0606 71.9412 98.2813 69.2665 102.938 64.4955C107.573 59.7175 110.08 53.4251 109.998 46.7794C109.906 40.2552 107.31 34.1203 102.682 29.4849Z" fill="url(#paint0_linear_2390_1670)"/>
<path d="M30.6816 80.6978C30.6816 80.6978 25.8606 85.2008 24.725 86.59C24.2928 87.1186 23.9678 87.7505 23.7893 88.454C23.1464 91.0144 24.6964 93.6178 27.2605 94.2642C29.8246 94.9105 32.4243 93.3536 33.0706 90.793C33.2491 90.0858 33.2599 89.3824 33.1314 88.7111C32.785 86.9506 30.6816 80.6978 30.6816 80.6978Z" fill="url(#paint1_linear_2390_1670)"/>
<path d="M24.9821 103.306C24.9821 103.306 20.1647 107.813 19.0291 109.206C18.5969 109.734 18.2685 110.359 18.0934 111.063C17.4471 113.627 19.0005 116.226 21.5609 116.873C24.125 117.519 26.7248 115.966 27.3711 113.402C27.5533 112.698 27.5603 111.987 27.4319 111.323C27.0891 109.556 24.9821 103.306 24.9821 103.306Z" fill="url(#paint2_linear_2390_1670)"/>
<path d="M59.3003 80.312C59.3003 80.312 54.4863 84.8188 53.3473 86.2079C52.9151 86.7365 52.5901 87.365 52.4152 88.0685C51.7652 90.6326 53.3223 93.2323 55.8791 93.8787C58.4466 94.5216 61.0464 92.9715 61.6929 90.4075C61.8714 89.7003 61.8822 88.9969 61.7501 88.3256C61.407 86.5649 59.3003 80.312 59.3003 80.312Z" fill="url(#paint3_linear_2390_1670)"/>
<path d="M53.6007 102.92C53.6007 102.92 48.7868 107.427 47.6514 108.816C47.2158 109.348 46.8942 109.973 46.7157 110.677C46.0694 113.241 47.6228 115.841 50.1869 116.487C52.7473 117.133 55.3507 115.58 55.9934 113.02C56.1719 112.312 56.1826 111.605 56.0542 110.938C55.7077 109.174 53.6007 102.92 53.6007 102.92Z" fill="url(#paint4_linear_2390_1670)"/>
<path d="M87.926 79.9299C87.926 79.9299 83.105 84.433 81.9693 85.8221C81.5371 86.3508 81.2087 86.9793 81.0336 87.6828C80.3836 90.2468 81.9407 92.85 84.5048 93.4966C87.0653 94.1395 89.6686 92.5858 90.315 90.0217C90.4901 89.3183 90.5008 88.6111 90.3721 87.9399C90.0327 86.1794 87.926 79.9299 87.926 79.9299Z" fill="url(#paint5_linear_2390_1670)"/>
<path d="M82.2264 102.539C82.2264 102.539 77.4125 107.042 76.2698 108.434C75.8376 108.963 75.5126 109.592 75.3341 110.295C74.6912 112.855 76.2412 115.459 78.8053 116.102C81.3694 116.752 83.9691 115.198 84.6154 112.634C84.7939 111.931 84.8047 111.22 84.6762 110.556C84.3298 108.788 82.2264 102.539 82.2264 102.539Z" fill="url(#paint6_linear_2390_1670)"/>
<defs>
<linearGradient id="paint0_linear_2390_1670" x1="55" y1="0" x2="55" y2="72.8433" gradientUnits="userSpaceOnUse">
<stop stop-color="#F2FDFF"/>
<stop offset="0.105769" stop-color="#D3F1F6"/>
<stop offset="0.519231" stop-color="#B4E2EA"/>
<stop offset="1" stop-color="#5AB4C5"/>
</linearGradient>
<linearGradient id="paint1_linear_2390_1670" x1="28.4308" y1="80.6978" x2="28.4308" y2="94.4104" gradientUnits="userSpaceOnUse">
<stop stop-color="#F2FDFF"/>
<stop offset="0.105769" stop-color="#D3F1F6"/>
<stop offset="0.519231" stop-color="#B4E2EA"/>
<stop offset="1" stop-color="#5AB4C5"/>
</linearGradient>
<linearGradient id="paint2_linear_2390_1670" x1="22.7332" y1="103.306" x2="22.7332" y2="117.019" gradientUnits="userSpaceOnUse">
<stop stop-color="#F2FDFF"/>
<stop offset="0.105769" stop-color="#D3F1F6"/>
<stop offset="0.519231" stop-color="#B4E2EA"/>
<stop offset="1" stop-color="#5AB4C5"/>
</linearGradient>
<linearGradient id="paint3_linear_2390_1670" x1="57.0535" y1="80.312" x2="57.0535" y2="94.024" gradientUnits="userSpaceOnUse">
<stop stop-color="#F2FDFF"/>
<stop offset="0.105769" stop-color="#D3F1F6"/>
<stop offset="0.519231" stop-color="#B4E2EA"/>
<stop offset="1" stop-color="#5AB4C5"/>
</linearGradient>
<linearGradient id="paint4_linear_2390_1670" x1="51.3549" y1="102.92" x2="51.3549" y2="116.634" gradientUnits="userSpaceOnUse">
<stop stop-color="#F2FDFF"/>
<stop offset="0.105769" stop-color="#D3F1F6"/>
<stop offset="0.519231" stop-color="#B4E2EA"/>
<stop offset="1" stop-color="#5AB4C5"/>
</linearGradient>
<linearGradient id="paint5_linear_2390_1670" x1="85.6724" y1="79.9299" x2="85.6724" y2="93.6417" gradientUnits="userSpaceOnUse">
<stop stop-color="#F2FDFF"/>
<stop offset="0.105769" stop-color="#D3F1F6"/>
<stop offset="0.519231" stop-color="#B4E2EA"/>
<stop offset="1" stop-color="#5AB4C5"/>
</linearGradient>
<linearGradient id="paint6_linear_2390_1670" x1="79.9756" y1="102.539" x2="79.9756" y2="116.249" gradientUnits="userSpaceOnUse">
<stop stop-color="#F2FDFF"/>
<stop offset="0.105769" stop-color="#D3F1F6"/>
<stop offset="0.519231" stop-color="#B4E2EA"/>
<stop offset="1" stop-color="#5AB4C5"/>
</linearGradient>
</defs>
</svg>
