<svg width="33" height="33" viewBox="0 0 33 33" fill="none" xmlns="http://www.w3.org/2000/svg">
<path d="M16.5 3.125C23.8868 3.125 29.875 9.11319 29.875 16.5C29.875 23.8868 23.8868 29.875 16.5 29.875C9.11319 29.875 3.125 23.8868 3.125 16.5C3.125 9.11319 9.11319 3.125 16.5 3.125ZM16.5 5.125C10.2178 5.125 5.125 10.2178 5.125 16.5C5.125 22.7822 10.2178 27.875 16.5 27.875C22.7822 27.875 27.875 22.7822 27.875 16.5C27.875 10.2178 22.7822 5.125 16.5 5.125ZM21.293 11.668C21.6835 11.2774 22.3165 11.2774 22.707 11.668C23.0976 12.0585 23.0976 12.6915 22.707 13.082L15.125 20.6641L10.293 15.832C9.90244 15.4415 9.90244 14.8085 10.293 14.418C10.6835 14.0274 11.3165 14.0274 11.707 14.418L15.125 17.8359L21.293 11.668Z" fill="#ADB8BE"/>
</svg>
