<svg width="25" height="25" viewBox="0 0 25 25" fill="none" xmlns="http://www.w3.org/2000/svg">
<path d="M17.3082 3.06348C17.7121 3.06348 18.1069 3.18325 18.4427 3.40764C18.7786 3.63203 19.0403 3.95097 19.1949 4.32413C19.3495 4.69728 19.3899 5.10789 19.3111 5.50402C19.2323 5.90016 19.0378 6.26403 18.7522 6.54963C18.4666 6.83523 18.1027 7.02973 17.7066 7.10852C17.3105 7.18732 16.8999 7.14688 16.5267 6.99231C16.1535 6.83775 15.8346 6.576 15.6102 6.24017C15.3858 5.90435 15.2661 5.50952 15.2661 5.10562C15.2661 4.56401 15.4812 4.04458 15.8642 3.66161C16.2472 3.27863 16.7666 3.06348 17.3082 3.06348Z" fill="white"/>
<path d="M15.2664 18.3798C15.2678 17.297 15.6983 16.2588 16.464 15.4932C17.2297 14.7275 18.2679 14.2968 19.3507 14.2955C20.4339 14.2955 21.4725 14.7257 22.2384 15.4917C23.0044 16.2576 23.435 17.2966 23.435 18.3798C23.435 19.463 23.0044 20.5018 22.2384 21.2677C21.4725 22.0337 20.4339 22.4641 19.3507 22.4641C18.2679 22.4627 17.2297 22.0319 16.464 21.2662C15.6983 20.5006 15.2678 19.4626 15.2664 18.3798ZM17.3086 18.3798C17.3086 18.9214 17.5229 19.4408 17.9059 19.8238C18.2888 20.2067 18.8091 20.4219 19.3507 20.4219C19.8923 20.4219 20.4116 20.2067 20.7946 19.8238C21.1776 19.4408 21.3929 18.9214 21.3929 18.3798C21.3929 17.8382 21.1776 17.3188 20.7946 16.9358C20.4116 16.5528 19.8923 16.3376 19.3507 16.3376C18.8091 16.3376 18.2888 16.5528 17.9059 16.9358C17.5229 17.3188 17.3086 17.8382 17.3086 18.3798ZM0.971436 18.3798C0.972787 17.297 1.40334 16.2588 2.169 15.4932C2.93466 14.7275 3.97292 14.2968 5.05572 14.2955C6.13894 14.2955 7.17749 14.7257 7.94344 15.4917C8.70939 16.2576 9.14001 17.2966 9.14001 18.3798C9.14001 19.463 8.70939 20.5018 7.94344 21.2677C7.17749 22.0337 6.13894 22.4641 5.05572 22.4641C3.97292 22.4627 2.93466 22.0319 2.169 21.2662C1.40334 20.5006 0.972787 19.4626 0.971436 18.3798ZM3.01358 18.3798C3.01358 18.9214 3.22789 19.4408 3.61087 19.8238C3.99384 20.2067 4.51411 20.4219 5.05572 20.4219C5.59733 20.4219 6.11661 20.2067 6.49958 19.8238C6.88256 19.4408 7.09787 18.9214 7.09787 18.3798C7.09787 17.8382 6.88256 17.3188 6.49958 16.9358C6.11661 16.5528 5.59733 16.3376 5.05572 16.3376C4.51411 16.3376 3.99384 16.5528 3.61087 16.9358C3.22789 17.3188 3.01358 17.8382 3.01358 18.3798ZM11.1822 19.4008V15.7403L8.41908 12.9773C8.31779 12.8759 8.23893 12.7543 8.18774 12.6204C8.13655 12.4865 8.11415 12.3434 8.12193 12.2002C8.12971 12.0568 8.16699 11.9167 8.23261 11.7889C8.29824 11.6612 8.39079 11.5488 8.50284 11.459L13.6082 7.37471C13.7186 7.28568 13.8462 7.22055 13.9831 7.18363C14.1201 7.14671 14.2627 7.13873 14.4029 7.1602C14.5426 7.18232 14.6768 7.23331 14.7958 7.30977C14.9148 7.38623 15.0168 7.48655 15.0949 7.60442L16.83 10.2142H19.3487C19.6195 10.2142 19.8792 10.3218 20.0707 10.5133C20.2622 10.7048 20.3698 10.9645 20.3698 11.2353C20.3698 11.5061 20.2622 11.7658 20.0707 11.9573C19.8792 12.1488 19.6195 12.2563 19.3487 12.2563H16.2855C16.1174 12.2562 15.9511 12.2148 15.8029 12.1353C15.6547 12.0559 15.5291 11.941 15.436 11.801L14.013 9.66489L10.6656 12.3401L12.9232 14.5987C13.0185 14.693 13.0932 14.8053 13.1445 14.929C13.1959 15.0528 13.2229 15.1855 13.2223 15.3195V19.4038C13.2223 19.6746 13.1146 19.9344 12.9232 20.1259C12.7317 20.3174 12.472 20.4249 12.2012 20.4249C12.0671 20.4246 11.9342 20.398 11.8104 20.3464C11.6865 20.2948 11.5739 20.2193 11.4793 20.1241C11.3847 20.029 11.3089 19.9162 11.2579 19.7921C11.2069 19.668 11.1818 19.535 11.1822 19.4008Z" fill="white"/>
</svg>
