<svg width="20" height="20" viewBox="0 0 20 20" fill="none" xmlns="http://www.w3.org/2000/svg">
<path d="M5.00002 14.1667L4.16669 15.8334M8.33335 14.1667L6.66669 17.5001M11.6667 14.1667L10.8334 15.8334M15 14.1667L13.3334 17.5001" stroke="#5AB4C5" stroke-width="2" stroke-linecap="round" stroke-linejoin="round"/>
<path d="M17.5 7.5001C17.5 8.38415 17.1488 9.232 16.5237 9.85712C15.8986 10.4822 15.0507 10.8334 14.1667 10.8334H4.99998C4.63127 10.8362 4.26652 10.7574 3.93185 10.6026C3.59719 10.4478 3.30091 10.2209 3.06423 9.93818C2.82756 9.65544 2.65636 9.32385 2.5629 8.96717C2.46944 8.61049 2.45604 8.23755 2.52365 7.87509C2.59126 7.51262 2.73821 7.16959 2.95398 6.87059C3.16974 6.57159 3.44897 6.32402 3.77166 6.14561C4.09434 5.96721 4.4525 5.86239 4.82046 5.83868C5.18841 5.81496 5.55706 5.87293 5.89998 6.00843C6.03483 5.19532 6.40779 4.44046 6.97171 3.83935C7.53562 3.23824 8.26514 2.81788 9.068 2.63144C9.87085 2.445 10.711 2.50086 11.4821 2.79195C12.2532 3.08304 12.9206 3.59628 13.4 4.26676C13.6509 4.20439 13.9081 4.17084 14.1667 4.16676C15.0507 4.16676 15.8986 4.51795 16.5237 5.14307C17.1488 5.7682 17.5 6.61604 17.5 7.5001Z" stroke="#475259" stroke-width="2" stroke-linecap="round" stroke-linejoin="round"/>
</svg>
