<svg width="16" height="18" viewBox="0 0 16 18" fill="none" xmlns="http://www.w3.org/2000/svg">
<path d="M0.996154 17.908C0.731957 17.908 0.478657 17.8033 0.291842 17.6167C0.105027 17.4301 0 17.177 0 16.9131C0 16.6493 0.105027 16.3962 0.291842 16.2096C0.478657 16.023 0.731957 15.9182 0.996154 15.9182H3.21026V0.994891C3.21026 0.731029 3.31529 0.477929 3.5021 0.29135C3.68892 0.104772 3.94222 0 4.20642 0C4.47061 0 4.72391 0.104772 4.91073 0.29135C5.09754 0.477929 5.20257 0.731029 5.20257 0.994891V1.95104H14.0823C14.2578 1.9508 14.4309 1.99723 14.5824 2.08572C14.7338 2.17422 14.8585 2.30155 14.9443 2.45444C15.0328 2.60531 15.0804 2.77702 15.0804 2.95188C15.0804 3.12675 15.0328 3.29845 14.9443 3.44933L13.4169 6.03602L14.9443 8.62271C15.033 8.77478 15.0804 8.94767 15.0804 9.12368C15.0804 9.29968 15.033 9.47246 14.9443 9.62452C14.8569 9.77561 14.7317 9.90119 14.5804 9.9885C14.4292 10.0758 14.257 10.1218 14.0823 10.122H5.20257V15.9182H10.5297C10.7939 15.9182 11.0472 16.023 11.234 16.2096C11.4208 16.3962 11.5258 16.6493 11.5258 16.9131C11.5258 17.177 11.4208 17.4301 11.234 17.6167C11.0472 17.8033 10.7939 17.908 10.5297 17.908H0.996154ZM5.20062 8.12223H12.3371L11.3993 6.53638C11.3077 6.3835 11.2593 6.20873 11.2593 6.03055C11.2593 5.85237 11.3077 5.67749 11.3993 5.52461L12.3371 3.93876H5.20062V8.12223Z" fill="white"/>
</svg>
