<svg width="23" height="23" viewBox="0 0 23 23" fill="none" xmlns="http://www.w3.org/2000/svg">
<g clip-path="url(#clip0_2093_2167)">
<path d="M21.3571 0V7.11937V11.5" stroke="#5AB4C5" stroke-width="2.5" stroke-linejoin="round"/>
<path d="M1.15002 11.5L1.15002 23" stroke="#ADB8BE" stroke-width="2.5" stroke-linejoin="round"/>
<path d="M1.64288 11.5C1.64287 13.4347 2.21221 15.3267 3.27997 16.9401C4.34772 18.5535 5.86666 19.817 7.6475 20.5732C9.42834 21.3293 11.3923 21.5447 13.2947 21.1925C15.1971 20.8402 16.9538 19.9359 18.3458 18.5922" stroke="#ADB8BE" stroke-width="2.5" stroke-linejoin="round"/>
<path d="M21.3571 11.5C21.3571 9.53563 20.7702 7.61602 19.6716 5.9875C18.5731 4.35899 17.013 3.09585 15.1915 2.36017C13.3701 1.62449 11.3703 1.44983 9.44893 1.85858C7.52751 2.26733 5.77205 3.24086 4.40778 4.65426" stroke="#5AB4C5" stroke-width="2.5" stroke-linejoin="round"/>
</g>
<defs>
<clipPath id="clip0_2093_2167">
<rect width="23" height="23" fill="white"/>
</clipPath>
</defs>
</svg>
