<svg width="30" height="30" viewBox="0 0 30 30" fill="none" xmlns="http://www.w3.org/2000/svg">
<path d="M25 16.3889C25 25.2778 17.4445 27.5 13.6666 27.5C10.3611 27.5 3.75 25.2778 3.75 16.3889C3.75 12.9119 5.57684 10.5767 7.32495 9.24318C8.29801 8.50086 9.538 9.23996 9.66271 10.4575L9.77 11.5048C9.90065 12.7801 11.0617 13.8258 12.1367 13.1271C14.2423 11.7588 15 8.469 15 6.66668V6.26214C15 4.475 16.8047 3.32481 18.2529 4.37209C21.4566 6.68909 25 10.7303 25 16.3889Z" fill="#5AB4C5" stroke="#5AB4C5" stroke-width="2"/>
<path d="M10 23.0556C10 26.6111 13.1111 27.5 14.6666 27.5C16.0278 27.5 18.75 26.6111 18.75 23.0556C18.75 21.6794 18.0134 20.7503 17.3005 20.2141C16.803 19.84 16.1035 20.176 15.9324 20.7745C15.7094 21.5546 14.9035 22.045 14.493 21.3449C14.1176 20.7048 14.1176 19.7446 14.1176 19.1668C14.1176 18.371 13.3174 17.8559 12.6736 18.3236C11.3831 19.2614 10 20.8519 10 23.0556Z" fill="#DBF1F5"/>
</svg>
