<svg width="20" height="20" viewBox="0 0 20 20" fill="none" xmlns="http://www.w3.org/2000/svg">
<mask id="mask0_2221_2682" style="mask-type:alpha" maskUnits="userSpaceOnUse" x="0" y="0" width="20" height="20">
<rect width="20" height="20" fill="#D9D9D9"/>
</mask>
<g mask="url(#mask0_2221_2682)">
<path d="M10 19.4166L7.20837 16.6666H3.33337V12.7916L0.583374 9.99992L3.33337 7.20825V3.33325H7.20837L10 0.583252L12.7917 3.33325H16.6667V7.20825L19.4167 9.99992L16.6667 12.7916V16.6666H12.7917L10 19.4166ZM10 14.1666C11.1528 14.1666 12.1355 13.7603 12.948 12.9478C13.7605 12.1353 14.1667 11.1527 14.1667 9.99992C14.1667 8.84714 13.7605 7.8645 12.948 7.052C12.1355 6.2395 11.1528 5.83325 10 5.83325C8.84726 5.83325 7.86462 6.2395 7.05212 7.052C6.23962 7.8645 5.83337 8.84714 5.83337 9.99992C5.83337 11.1527 6.23962 12.1353 7.05212 12.9478C7.86462 13.7603 8.84726 14.1666 10 14.1666ZM10 17.0833L12.0834 14.9999H15V12.0833L17.0834 9.99992L15 7.91659V4.99992H12.0834L10 2.91659L7.91671 4.99992H5.00004V7.91659L2.91671 9.99992L5.00004 12.0833V14.9999H7.91671L10 17.0833Z" fill="#5AB4C5"/>
</g>
</svg>
