<svg width="156" height="141" viewBox="0 0 156 141" fill="none" xmlns="http://www.w3.org/2000/svg">
<path d="M64.6255 77.2469C69.4619 63.7148 81.7231 53.957 96.0897 52.3211C91.3956 38.9645 78.6792 29.4106 63.7249 29.4106C44.7781 29.4106 29.4019 44.7634 29.4019 63.7148C29.4019 72.7519 32.901 80.9687 38.6192 87.1041C45.1956 80.9878 54.0145 77.2277 63.7061 77.2277C64.0092 77.228 64.303 77.2469 64.6255 77.2469Z" fill="#F0C87C"/>
<path d="M68.7175 0H58.7225V19.2406H68.7175V0Z" fill="#F8E3BC"/>
<path d="M35.8023 28.7327L22.1992 15.1296L15.1297 22.1946L28.7331 35.8022L35.8023 28.7327Z" fill="#F0C87C"/>
<path d="M19.2406 58.7227H0V68.7177H19.2406V58.7227Z" fill="#F8E3BC"/>
<path d="M15.1297 105.236L22.1898 112.314L27.5239 106.976C28.3632 102.694 29.9421 98.678 32.1421 95.0603L28.7234 91.6416L15.1297 105.236Z" fill="#F0C87C"/>
<path d="M112.315 22.1947L105.241 15.1252L91.642 28.7329L98.7067 35.8024L112.315 22.1947Z" fill="#F0C87C"/>
<path d="M128.231 85.0562C125.429 72.06 113.884 62.321 100.053 62.321C86.0755 62.321 74.4306 72.259 71.7852 85.4591C70.2206 85.1888 68.6177 85.0182 66.9773 85.0182C51.5772 85.0182 39.0978 97.4976 39.0978 112.893C39.0978 128.293 51.5772 140.772 66.9773 140.772C80.1346 140.772 114.543 140.772 127.487 140.772C142.887 140.772 155.367 128.293 155.367 112.893C155.367 97.744 143.286 85.4497 128.231 85.0562Z" fill="url(#paint0_linear_2390_1694)"/>
<defs>
<linearGradient id="paint0_linear_2390_1694" x1="97.2322" y1="62.321" x2="97.2322" y2="140.772" gradientUnits="userSpaceOnUse">
<stop stop-color="#F2FDFF"/>
<stop offset="0.105769" stop-color="#D3F1F6"/>
<stop offset="0.519231" stop-color="#B4E2EA"/>
<stop offset="1" stop-color="#5AB4C5"/>
</linearGradient>
</defs>
</svg>
