<svg width="24" height="24" viewBox="0 0 24 24" fill="none" xmlns="http://www.w3.org/2000/svg">
<path d="M11.245 4.32326C11.4765 3.65734 11.5922 3.32439 11.7634 3.23211C11.9115 3.15224 12.0898 3.15224 12.238 3.23211C12.4091 3.32439 12.5248 3.65734 12.7563 4.32326L14.2866 8.72565C14.3525 8.91518 14.3854 9.00994 14.4448 9.08051C14.4972 9.14285 14.5641 9.19144 14.6396 9.22204C14.725 9.25669 14.8253 9.25873 15.0259 9.26282L19.6857 9.35778C20.3906 9.37214 20.743 9.37933 20.8837 9.51358C21.0054 9.62977 21.0605 9.7994 21.0303 9.96495C20.9955 10.1563 20.7146 10.3692 20.1528 10.7952L16.4387 13.6109C16.2788 13.7322 16.1989 13.7928 16.1501 13.871C16.107 13.9402 16.0815 14.0188 16.0757 14.1C16.0692 14.192 16.0982 14.288 16.1563 14.4801L17.506 18.9412C17.7101 19.616 17.8122 19.9534 17.728 20.1286C17.6551 20.2803 17.5108 20.3851 17.344 20.4076C17.1513 20.4335 16.862 20.2322 16.2833 19.8295L12.4576 17.1674C12.2929 17.0528 12.2106 16.9955 12.1211 16.9732C12.042 16.9536 11.9593 16.9536 11.8803 16.9732C11.7908 16.9955 11.7084 17.0528 11.5437 17.1674L7.71805 19.8295C7.13937 20.2322 6.85003 20.4335 6.65733 20.4076C6.49056 20.3851 6.34626 20.2803 6.27337 20.1286C6.18915 19.9534 6.29123 19.616 6.49538 18.9412L7.84503 14.4801C7.90313 14.288 7.93218 14.192 7.92564 14.1C7.91986 14.0188 7.89432 13.9402 7.85123 13.871C7.80246 13.7928 7.72251 13.7322 7.56262 13.6109L3.84858 10.7952C3.28678 10.3692 3.00588 10.1563 2.97101 9.96495C2.94082 9.7994 2.99594 9.62977 3.11767 9.51358C3.25831 9.37933 3.61074 9.37215 4.31559 9.35778L8.9754 9.26282C9.176 9.25873 9.27631 9.25669 9.36177 9.22204C9.43726 9.19144 9.50414 9.14285 9.55657 9.08051C9.61593 9.00994 9.64887 8.91518 9.71475 8.72565L11.245 4.32326Z" stroke="#D9D9D9" stroke-width="1.8" stroke-linecap="round" stroke-linejoin="round"/>
</svg>
