<svg width="40" height="60" viewBox="0 0 40 60" fill="none" xmlns="http://www.w3.org/2000/svg">
<g clip-path="url(#clip0_2142_2115)">
<path d="M20 60C24.4183 60 28 56.4183 28 52C28 47.5817 24.4183 44 20 44C15.5817 44 12 47.5817 12 52C12 56.4183 15.5817 60 20 60Z" fill="#DBF1F5"/>
<path d="M20 56C22.2091 56 24 54.2091 24 52C24 49.7909 22.2091 48 20 48C17.7909 48 16 49.7909 16 52C16 54.2091 17.7909 56 20 56Z" fill="#5AB4C5"/>
<path d="M34.142 33.985L23.535 44.544C22.5954 45.4768 21.325 46.0003 20.001 46.0003C18.677 46.0003 17.4066 45.4768 16.467 44.544L5.857 33.985C4.00075 32.1406 2.52759 29.9474 1.52231 27.5315C0.517042 25.1156 -0.000488281 22.5247 -0.000488281 19.908C-0.000488281 17.2912 0.517042 14.7004 1.52231 12.2844C2.52759 9.86852 4.00075 7.67528 5.857 5.83095C9.61611 2.09616 14.7 0 19.999 0C25.298 0 30.3819 2.09616 34.141 5.83095C35.9973 7.67528 37.4704 9.86852 38.4757 12.2844C39.481 14.7004 39.9985 17.2912 39.9985 19.908C39.9985 22.5247 39.481 25.1156 38.4757 27.5315C37.4704 29.9474 35.9983 32.1406 34.142 33.985Z" fill="#5AB4C5"/>
<path d="M20 36C28.8366 36 36 28.8366 36 20C36 11.1634 28.8366 4 20 4C11.1634 4 4 11.1634 4 20C4 28.8366 11.1634 36 20 36Z" fill="white"/>
<path d="M14.215 28.8319C13.9498 28.8319 13.6955 28.7266 13.508 28.5391C13.3204 28.3515 13.215 28.0971 13.215 27.8319C13.215 27.5667 13.3204 27.3123 13.508 27.1248C13.6955 26.9372 13.9498 26.8319 14.215 26.8319H16.4377V11.8319C16.4377 11.5667 16.5431 11.3123 16.7306 11.1248C16.9182 10.9372 17.1724 10.8319 17.4377 10.8319C17.7029 10.8319 17.9571 10.9372 18.1447 11.1248C18.3322 11.3123 18.4377 11.5667 18.4377 11.8319V12.793H27.3517C27.5279 12.7927 27.7016 12.8394 27.8537 12.9283C28.0057 13.0173 28.1308 13.1453 28.2169 13.299C28.3058 13.4506 28.3537 13.6232 28.3537 13.799C28.3537 13.9747 28.3058 14.1473 28.2169 14.299L26.6837 16.8989L28.2169 19.4989C28.306 19.6517 28.3537 19.8255 28.3537 20.0024C28.3537 20.1793 28.306 20.353 28.2169 20.5059C28.1293 20.6577 28.0035 20.7839 27.8517 20.8717C27.6999 20.9595 27.5271 21.0057 27.3517 21.0059H18.4377V26.8319H23.7853C24.0505 26.8319 24.3048 26.9372 24.4923 27.1248C24.6799 27.3123 24.7853 27.5667 24.7853 27.8319C24.7853 28.0971 24.6799 28.3515 24.4923 28.5391C24.3048 28.7266 24.0505 28.8319 23.7853 28.8319H14.215ZM18.4357 18.9958H25.5998L24.6584 17.4019C24.5664 17.2482 24.5177 17.0725 24.5177 16.8934C24.5177 16.7143 24.5664 16.5386 24.6584 16.3849L25.5998 14.7909H18.4357V18.9958Z" fill="#5AB4C5"/>
</g>
<defs>
<clipPath id="clip0_2142_2115">
<rect width="40" height="60" fill="white"/>
</clipPath>
</defs>
</svg>
