<svg width="40" height="60" viewBox="0 0 40 60" fill="none" xmlns="http://www.w3.org/2000/svg">
<g clip-path="url(#clip0_2142_2125)">
<path d="M34.142 33.985L23.535 44.544C22.5954 45.4768 21.325 46.0003 20.001 46.0003C18.677 46.0003 17.4066 45.4768 16.467 44.544L5.857 33.985C4.00075 32.1406 2.52759 29.9474 1.52231 27.5315C0.517042 25.1156 -0.000488281 22.5247 -0.000488281 19.908C-0.000488281 17.2912 0.517042 14.7004 1.52231 12.2844C2.52759 9.86852 4.00075 7.67528 5.857 5.83095C9.61611 2.09616 14.7 0 19.999 0C25.298 0 30.3819 2.09616 34.141 5.83095C35.9973 7.67528 37.4704 9.86852 38.4757 12.2844C39.481 14.7004 39.9985 17.2912 39.9985 19.908C39.9985 22.5247 39.481 25.1156 38.4757 27.5315C37.4704 29.9474 35.9983 32.1406 34.142 33.985Z" fill="#738995"/>
<path d="M20 36C28.8366 36 36 28.8366 36 20C36 11.1634 28.8366 4 20 4C11.1634 4 4 11.1634 4 20C4 28.8366 11.1634 36 20 36Z" fill="white"/>
<path d="M24.951 11C25.3466 11 25.7332 11.1173 26.0621 11.3371C26.391 11.5568 26.6474 11.8692 26.7987 12.2346C26.9501 12.6001 26.9897 13.0022 26.9126 13.3902C26.8354 13.7781 26.6449 14.1345 26.3652 14.4142C26.0855 14.6939 25.7291 14.8844 25.3412 14.9616C24.9532 15.0387 24.5511 14.9991 24.1856 14.8478C23.8202 14.6964 23.5078 14.44 23.288 14.1111C23.0683 13.7822 22.951 13.3956 22.951 13C22.951 12.4696 23.1617 11.9609 23.5368 11.5858C23.9118 11.2107 24.4206 11 24.951 11Z" fill="#738995"/>
<path d="M22.9514 26C22.9527 24.9396 23.3744 23.9229 24.1242 23.173C24.8741 22.4232 25.8909 22.0014 26.9514 22C28.0123 22 29.0294 22.4214 29.7795 23.1716C30.5297 23.9217 30.9514 24.9392 30.9514 26C30.9514 27.0609 30.5297 28.0783 29.7795 28.8284C29.0294 29.5786 28.0123 30 26.9514 30C25.8909 29.9987 24.8741 29.5768 24.1242 28.8269C23.3744 28.0771 22.9527 27.0605 22.9514 26ZM24.9514 26C24.9514 26.5305 25.1613 27.0392 25.5363 27.4142C25.9114 27.7893 26.421 28 26.9514 28C27.4818 28 27.9904 27.7893 28.3654 27.4142C28.7405 27.0392 28.9514 26.5305 28.9514 26C28.9514 25.4696 28.7405 24.9609 28.3654 24.5859C27.9904 24.2108 27.4818 24 26.9514 24C26.421 24 25.9114 24.2108 25.5363 24.5859C25.1613 24.9609 24.9514 25.4696 24.9514 26ZM8.95139 26C8.95271 24.9396 9.37438 23.9229 10.1242 23.173C10.8741 22.4232 11.8909 22.0014 12.9514 22C14.0123 22 15.0294 22.4214 15.7795 23.1716C16.5297 23.9217 16.9514 24.9392 16.9514 26C16.9514 27.0609 16.5297 28.0783 15.7795 28.8284C15.0294 29.5786 14.0123 30 12.9514 30C11.8909 29.9987 10.8741 29.5768 10.1242 28.8269C9.37438 28.0771 8.95271 27.0605 8.95139 26ZM10.9514 26C10.9514 26.5305 11.1613 27.0392 11.5363 27.4142C11.9114 27.7893 12.421 28 12.9514 28C13.4818 28 13.9904 27.7893 14.3654 27.4142C14.7405 27.0392 14.9514 26.5305 14.9514 26C14.9514 25.4696 14.7405 24.9609 14.3654 24.5859C13.9904 24.2108 13.4818 24 12.9514 24C12.421 24 11.9114 24.2108 11.5363 24.5859C11.1613 24.9609 10.9514 25.4696 10.9514 26ZM18.9514 27V23.4151L16.2453 20.709C16.1461 20.6097 16.0689 20.4907 16.0188 20.3595C15.9686 20.2284 15.9467 20.0882 15.9543 19.948C15.9619 19.8076 15.9984 19.6703 16.0627 19.5452C16.127 19.4201 16.2176 19.3101 16.3274 19.2221L21.3274 15.2221C21.4355 15.1349 21.5604 15.0711 21.6945 15.035C21.8287 14.9988 21.9684 14.991 22.1057 15.012C22.2425 15.0337 22.3739 15.0836 22.4904 15.1585C22.607 15.2334 22.7069 15.3316 22.7834 15.4471L24.4826 18.003H26.9494C27.2146 18.003 27.4689 18.1084 27.6565 18.2959C27.844 18.4835 27.9494 18.7378 27.9494 19.003C27.9494 19.2682 27.844 19.5226 27.6565 19.7101C27.4689 19.8977 27.2146 20.003 26.9494 20.003H23.9494C23.7847 20.0029 23.6219 19.9622 23.4768 19.8844C23.3316 19.8066 23.2086 19.6942 23.1174 19.5571L21.7238 17.465L18.4455 20.085L20.6565 22.297C20.7498 22.3893 20.823 22.4993 20.8733 22.6205C20.9236 22.7418 20.95 22.8717 20.9494 23.003V27.003C20.9494 27.2682 20.844 27.5226 20.6565 27.7101C20.4689 27.8977 20.2146 28.003 19.9494 28.003C19.818 28.0027 19.6879 27.9766 19.5666 27.9261C19.4453 27.8755 19.3351 27.8016 19.2424 27.7084C19.1497 27.6153 19.0756 27.5048 19.0256 27.3832C18.9757 27.2617 18.951 27.1314 18.9514 27Z" fill="#738995"/>
<path d="M20 60C24.4183 60 28 56.4183 28 52C28 47.5817 24.4183 44 20 44C15.5817 44 12 47.5817 12 52C12 56.4183 15.5817 60 20 60Z" fill="#E3E7E9"/>
<path d="M20 56C22.2091 56 24 54.2091 24 52C24 49.7909 22.2091 48 20 48C17.7909 48 16 49.7909 16 52C16 54.2091 17.7909 56 20 56Z" fill="#738995"/>
</g>
<defs>
<clipPath id="clip0_2142_2125">
<rect width="40" height="60" fill="white"/>
</clipPath>
</defs>
</svg>
