<svg width="75" height="75" viewBox="0 0 75 75" fill="none" xmlns="http://www.w3.org/2000/svg">
<path fill-rule="evenodd" clip-rule="evenodd" d="M75 37.5C75 58.2107 58.2107 75 37.5 75C16.7893 75 0 58.2107 0 37.5C0 16.7893 16.7893 0 37.5 0C58.2107 0 75 16.7893 75 37.5ZM34.5 33.3333V20.8333C34.5 19.1765 35.8431 17.8333 37.5 17.8333C39.1569 17.8333 40.5 19.1765 40.5 20.8333V33.3333C40.5 34.9902 39.1569 36.3333 37.5 36.3333C35.8431 36.3333 34.5 34.9902 34.5 33.3333ZM34.5 45.8333V50.0003C34.5002 51.657 35.8433 53.0003 37.5 53.0003C39.1567 53.0003 40.4998 51.657 40.5 50.0003V45.8333C40.5 44.1765 39.1569 42.8333 37.5 42.8333C35.8431 42.8333 34.5 44.1765 34.5 45.8333Z" fill="#F5BA4B"/>
</svg>
