<svg width="21" height="24" viewBox="0 0 21 24" fill="none" xmlns="http://www.w3.org/2000/svg">
<path d="M13 4.99985C13.5522 4.99985 13.9999 5.44763 14 5.99985V15.5858L16.293 13.2928C16.6835 12.9024 17.3165 12.9024 17.707 13.2928C18.0975 13.6833 18.0975 14.3163 17.707 14.7069L13 19.4139L8.29297 14.7069C7.90252 14.3163 7.90247 13.6833 8.29297 13.2928C8.68347 12.9024 9.31653 12.9024 9.70703 13.2928L12 15.5858V5.99985C12.0001 5.44763 12.4478 4.99985 13 4.99985ZM9.70703 9.29282C10.0975 9.68332 10.0975 10.3163 9.70703 10.7069C9.31651 11.0974 8.68349 11.0974 8.29297 10.7069L6 8.41391V17.9998C6 18.5521 5.55228 18.9998 5 18.9998C4.44772 18.9998 4 18.5521 4 17.9998V8.41391L1.70703 10.7069C1.31651 11.0974 0.683493 11.0974 0.292969 10.7069C-0.09748 10.3163 -0.0975304 9.68332 0.292969 9.29282L5 4.58578L9.70703 9.29282Z" fill="#71C5D5"/>
</svg>
