<svg width="154" height="102" viewBox="0 0 154 102" fill="none" xmlns="http://www.w3.org/2000/svg">
<path d="M143.182 42.0359C136.826 35.531 128.34 31.8117 119.298 31.5728L116.24 31.493L115.595 28.4914C113.886 20.5466 109.472 13.3194 103.158 8.13242C96.6711 2.81876 88.811 0.00480249 80.4137 0C71.9324 0.00480249 64.0023 2.87489 57.4731 8.29661C51.1215 13.5821 46.7408 20.9359 45.1342 28.9981L44.3869 32.7314L40.6319 32.0747C38.4882 31.7043 36.5405 31.5212 34.6631 31.5212C25.4205 31.526 16.7199 35.1465 10.1486 41.7217C3.61011 48.3065 0.0047824 57.0485 0 66.3392C0.0047824 75.6207 3.61011 84.3579 10.1626 90.9568C16.7199 97.5228 25.4158 101.148 34.6676 101.153H118.374C127.621 101.148 136.317 97.5228 142.888 90.9475C149.427 84.3582 153.032 75.6207 153.037 66.3348C153.032 57.222 149.534 48.597 143.182 42.0359Z" fill="url(#paint0_linear_2390_1703)"/>
<defs>
<linearGradient id="paint0_linear_2390_1703" x1="76.5184" y1="0" x2="76.5184" y2="101.153" gradientUnits="userSpaceOnUse">
<stop stop-color="#F2FDFF"/>
<stop offset="0.105769" stop-color="#D3F1F6"/>
<stop offset="0.519231" stop-color="#B4E2EA"/>
<stop offset="1" stop-color="#5AB4C5"/>
</linearGradient>
</defs>
</svg>
